<?xml version="1.0" standalone="no"?>
<!DOCTYPE svg PUBLIC "-//W3C//DTD SVG 20010904//EN"
 "http://www.w3.org/TR/2001/REC-SVG-20010904/DTD/svg10.dtd">
<svg version="1.0" xmlns="http://www.w3.org/2000/svg"
 width="612.000000pt" height="612.000000pt" viewBox="0 0 612.000000 612.000000"
 preserveAspectRatio="xMidYMid meet">
<metadata>
Created by potrace 1.14, written by Peter Selinger 2001-2017
</metadata>
<g transform="translate(0.000000,612.000000) scale(0.100000,-0.100000)"
fill="#000000" stroke="none">
<path d="M1900 4871 c-83 -26 -148 -81 -192 -162 l-23 -44 0 -1605 0 -1605 23
-42 c33 -63 74 -106 134 -139 l53 -29 1165 0 1165 0 44 23 c62 34 109 80 140
137 l26 50 0 1605 0 1605 -24 45 c-32 61 -76 107 -136 138 l-50 27 -1150 2
c-632 1 -1161 -2 -1175 -6z m2247 -281 c21 -12 36 -32 43 -57 17 -55 10 -560
-8 -590 -31 -55 17 -53 -1124 -53 -1025 0 -1054 1 -1085 20 -47 29 -53 64 -53
346 0 276 5 305 54 335 30 18 67 19 1086 19 1028 0 1056 -1 1087 -20z m-1275
-1089 l33 -29 0 -402 0 -402 -33 -29 -32 -29 -396 0 c-252 0 -402 4 -415 10
-47 26 -49 44 -49 450 0 339 2 385 17 410 9 16 26 33 37 39 13 6 171 10 413
10 l393 1 32 -29z m1217 15 c50 -26 51 -38 51 -447 0 -405 -2 -423 -49 -449
-13 -6 -163 -10 -415 -10 l-396 0 -32 29 -33 29 0 402 0 402 33 29 32 29 391
0 c318 0 395 -3 418 -14z m-1232 -1126 c21 -13 35 -31 42 -57 16 -55 14 -737
-2 -783 -8 -24 -23 -41 -47 -53 -32 -16 -68 -17 -422 -15 l-388 3 -27 28 -28
27 -3 401 -3 400 35 35 34 34 389 0 c367 0 390 -1 420 -20z m1254 -18 l29 -32
0 -393 c0 -347 -2 -395 -16 -416 -34 -48 -57 -51 -451 -51 -416 0 -427 2 -450
70 -16 46 -18 728 -2 783 7 25 21 45 42 58 31 18 49 19 425 17 l394 -3 29 -33z"/>
<path d="M2360 3240 l0 -110 -110 0 -111 0 3 -82 3 -83 108 -3 107 -3 0 -109
0 -110 79 0 c63 0 80 3 85 16 3 9 6 58 6 109 l0 94 108 3 107 3 1 83 2 82
-109 0 -108 0 -3 108 -3 107 -82 3 -83 3 0 -111z"/>
<path d="M3375 3107 c-4 -13 -5 -50 -3 -82 l3 -60 303 -3 302 -2 0 85 0 85
-300 0 -300 0 -5 -23z"/>
<path d="M2227 2152 l-57 -57 77 -77 78 -78 -78 -78 -77 -78 58 -57 58 -57 78
76 78 77 79 -79 79 -79 55 60 55 59 -77 78 -78 78 78 75 c42 41 77 77 77 80 0
3 -25 31 -55 62 l-56 57 -80 -80 -79 -79 -73 73 c-39 39 -74 74 -77 77 -3 2
-32 -21 -63 -53z"/>
<path d="M3610 2170 l0 -60 65 0 65 0 0 60 0 60 -65 0 -65 0 0 -60z"/>
<path d="M3374 1953 l1 -78 303 -3 302 -2 0 80 0 80 -304 0 -304 0 2 -77z"/>
<path d="M3610 1730 l0 -60 65 0 65 0 0 60 0 60 -65 0 -65 0 0 -60z"/>
</g>
</svg>
